<svg width="28" height="22" viewBox="0 0 28 22" fill="none" xmlns="http://www.w3.org/2000/svg">
<path d="M4.98065 16.746H1.69711C1.24374 16.746 0.876221 17.1135 0.876221 17.5668V20.8504C0.876221 21.3037 1.24374 21.6713 1.69711 21.6713H4.98065C5.43401 21.6713 5.80153 21.3037 5.80153 20.8504V17.5668C5.80153 17.1135 5.43401 16.746 4.98065 16.746ZM4.98065 0.328247H1.69711C1.24374 0.328247 0.876221 0.69577 0.876221 1.14913V4.43267C0.876221 4.88604 1.24374 5.25356 1.69711 5.25356H4.98065C5.43401 5.25356 5.80153 4.88604 5.80153 4.43267V1.14913C5.80153 0.69577 5.43401 0.328247 4.98065 0.328247ZM4.98065 8.5371H1.69711C1.24374 8.5371 0.876221 8.90462 0.876221 9.35799V12.6415C0.876221 13.0949 1.24374 13.4624 1.69711 13.4624H4.98065C5.43401 13.4624 5.80153 13.0949 5.80153 12.6415V9.35799C5.80153 8.90462 5.43401 8.5371 4.98065 8.5371ZM26.3237 17.5668H9.90596C9.4526 17.5668 9.08507 17.9344 9.08507 18.3877V20.0295C9.08507 20.4829 9.4526 20.8504 9.90596 20.8504H26.3237C26.777 20.8504 27.1446 20.4829 27.1446 20.0295V18.3877C27.1446 17.9344 26.777 17.5668 26.3237 17.5668ZM26.3237 1.14913H9.90596C9.4526 1.14913 9.08507 1.51666 9.08507 1.97002V3.61179C9.08507 4.06515 9.4526 4.43267 9.90596 4.43267H26.3237C26.777 4.43267 27.1446 4.06515 27.1446 3.61179V1.97002C27.1446 1.51666 26.777 1.14913 26.3237 1.14913ZM26.3237 9.35799H9.90596C9.4526 9.35799 9.08507 9.72551 9.08507 10.1789V11.8206C9.08507 12.274 9.4526 12.6415 9.90596 12.6415H26.3237C26.777 12.6415 27.1446 12.274 27.1446 11.8206V10.1789C27.1446 9.72551 26.777 9.35799 26.3237 9.35799Z" fill="#5D9CEC"/>
</svg>
