<svg width="37" height="36" viewBox="0 0 37 36" fill="none" xmlns="http://www.w3.org/2000/svg">
<path d="M23.1238 17.9998C23.1238 20.485 21.1091 22.4998 18.6238 22.4998C16.1385 22.4998 14.1238 20.485 14.1238 17.9998C14.1238 15.5145 16.1385 13.4998 18.6238 13.4998C21.1091 13.4998 23.1238 15.5145 23.1238 17.9998Z" stroke="#C8C9CB" stroke-width="3" stroke-linecap="round" stroke-linejoin="round"/>
<path d="M29.7238 22.4998C29.3153 23.4254 29.5113 24.5065 30.2188 25.2298L30.3088 25.3198C30.8721 25.8825 31.1886 26.646 31.1886 27.4423C31.1886 28.2385 30.8721 29.0021 30.3088 29.5648C29.7461 30.1281 28.9825 30.4446 28.1863 30.4446C27.3901 30.4446 26.6265 30.1281 26.0638 29.5648L25.9738 29.4748C25.2505 28.7673 24.1694 28.5712 23.2438 28.9798C22.3371 29.3684 21.7477 30.2583 21.7438 31.2448V31.4998C21.7438 33.1566 20.4006 34.4998 18.7438 34.4998C17.0869 34.4998 15.7438 33.1566 15.7438 31.4998V31.3648C15.72 30.3488 15.0776 29.4506 14.1238 29.0998C13.1981 28.6912 12.1171 28.8873 11.3938 29.5948L11.3038 29.6848C10.7411 30.2481 9.97751 30.5646 9.18128 30.5646C8.38505 30.5646 7.62149 30.2481 7.05878 29.6848C6.49545 29.1221 6.17892 28.3585 6.17892 27.5623C6.17892 26.766 6.49545 26.0025 7.05878 25.4398L7.14878 25.3498C7.85628 24.6265 8.0523 23.5454 7.64378 22.6198C7.25518 21.7131 6.36524 21.1237 5.37878 21.1198L5.12378 21.1198C3.46692 21.1198 2.12378 19.7766 2.12378 18.1198C2.12378 16.4629 3.46693 15.1198 5.12378 15.1198H5.25878C6.27477 15.096 7.17298 14.4536 7.52378 13.4998C7.9323 12.5741 7.73628 11.493 7.02878 10.7698L6.93878 10.6798C6.37545 10.1171 6.05892 9.35349 6.05892 8.55726C6.05892 7.76103 6.37545 6.99746 6.93878 6.43476C7.50148 5.87143 8.26505 5.5549 9.06128 5.5549C9.85751 5.5549 10.6211 5.87143 11.1838 6.43476L11.2738 6.52476C11.9971 7.23225 13.0781 7.42828 14.0038 7.01976H14.1238C15.0305 6.63115 15.6198 5.74122 15.6238 4.75476V4.49976C15.6238 2.8429 16.9669 1.49976 18.6238 1.49976C20.2806 1.49976 21.6238 2.8429 21.6238 4.49976V4.63476C21.6277 5.62122 22.2171 6.51115 23.1238 6.89976C24.0494 7.30828 25.1305 7.11226 25.8538 6.40476L25.9438 6.31476C26.5065 5.75143 27.2701 5.4349 28.0663 5.4349C28.8625 5.4349 29.6261 5.75143 30.1888 6.31476C30.7521 6.87746 31.0686 7.64103 31.0686 8.43726C31.0686 9.23348 30.7521 9.99705 30.1888 10.5598L30.0988 10.6498C29.3913 11.373 29.1953 12.4541 29.6038 13.3798L29.6038 13.4998C29.9924 14.4065 30.8823 14.9958 31.8688 14.9998H32.1238C33.7806 14.9998 35.1238 16.3429 35.1238 17.9998C35.1238 19.6566 33.7806 20.9998 32.1238 20.9998H31.9888C31.0023 21.0037 30.1124 21.5931 29.7238 22.4998Z" stroke="#C8C9CB" stroke-width="3" stroke-linecap="round" stroke-linejoin="round"/>
</svg>
